<?xml version="1.0" encoding="iso-8859-1"?>
<!-- Generator: Adobe Illustrator 27.2.0, SVG Export Plug-In . SVG Version: 6.00 Build 0)  -->
<svg version="1.1" id="Layer_1" xmlns="http://www.w3.org/2000/svg" xmlns:xlink="http://www.w3.org/1999/xlink" x="0px" y="0px"
	 viewBox="0 0 100 100" style="enable-background:new 0 0 100 100;" xml:space="preserve">
<style type="text/css">
	.st0{fill:#FEC933;}
	.st1{fill:#B55E67;}
	.st2{fill:#6B96D6;}
	.st3{fill:#ABD451;}
	.st4{fill:#FC7884;}
	.st5{fill:#FB7369;}
	.st6{fill:#C9DCF4;}
	.st7{fill:#4A254B;}
	.st8{fill:#FFA340;}
	.st9{fill:#FFFFFF;}
	.st10{fill:#FD86AE;}
	.st11{fill:#81D4FA;}
	.st12{fill:#FEC524;}
	.st13{fill:none;}
	.st14{fill:#FDBC01;}
	.st15{fill:#430C61;}
	.st16{fill:none;stroke:#B55E67;stroke-linecap:round;stroke-linejoin:round;stroke-miterlimit:10;}
</style>
<g>
	<path class="st6" d="M71.986,88.109c-14.657,1.189-29.314,1.189-43.971,0c-3.666-0.297-6.521-3.286-6.707-6.96
		c-1.036-20.432-1.036-40.864,0-61.296c0.186-3.678,3.049-6.665,6.72-6.962c9.872-0.8,19.745-1.061,29.617-0.783
		c0.83,0.023,1.642,0.177,2.411,0.446c1.206,0.422,18.254,17.808,18.662,18.874c0.322,0.843,0.504,1.741,0.529,2.66
		c0.426,15.686,0.241,31.372-0.554,47.059C78.506,84.821,75.653,87.811,71.986,88.109z"/>
</g>
<g>
	<path class="st7" d="M50,53.947c2.567,0,4.683-1.935,4.967-4.426c0.035-0.303-0.186-0.574-0.491-0.574c-1.726,0-7.224,0-8.952,0
		c-0.305,0-0.527,0.271-0.492,0.574C45.317,52.012,47.433,53.947,50,53.947z"/>
</g>
<g>
	<circle class="st9" cx="37.5" cy="43.447" r="5.5"/>
</g>
<g>
	<circle class="st7" cx="37.5" cy="43.447" r="2.5"/>
</g>
<g>
	<circle class="st9" cx="62.5" cy="43.447" r="5.5"/>
</g>
<g>
	<circle class="st7" cx="62.5" cy="43.447" r="2.5"/>
</g>
<g>
	<path class="st2" d="M68.634,31.425l10.075,0.006c-0.407-1.067-1.03-2.049-1.851-2.872c-4.582-4.596-9.135-9.277-13.596-13.935
		c-0.9-0.94-2.002-1.644-3.208-2.066l0.022,10.324C60.087,27.601,63.914,31.422,68.634,31.425z"/>
</g>
<g>
	<path class="st2" d="M71.761,63.881H28.239c-0.276,0-0.5-0.224-0.5-0.5s0.224-0.5,0.5-0.5h43.521c0.276,0,0.5,0.224,0.5,0.5
		S72.037,63.881,71.761,63.881z"/>
</g>
<g>
	<path class="st2" d="M61.195,70.924H28.239c-0.276,0-0.5-0.224-0.5-0.5s0.224-0.5,0.5-0.5h32.956c0.276,0,0.5,0.224,0.5,0.5
		S61.472,70.924,61.195,70.924z"/>
</g>
<g>
	<path class="st2" d="M71.761,77.968H28.239c-0.276,0-0.5-0.224-0.5-0.5s0.224-0.5,0.5-0.5h43.521c0.276,0,0.5,0.224,0.5,0.5
		S72.037,77.968,71.761,77.968z"/>
</g>
</svg>