<!-- icon666.com - MILLIONS vector ICONS FREE --><svg version="1.1" id="Capa_1" xmlns="http://www.w3.org/2000/svg" xmlns:xlink="http://www.w3.org/1999/xlink" x="0px" y="0px" viewBox="0 0 45.5 45.5" style="enable-background:new 0 0 45.5 45.5;" xml:space="preserve"><g><g><path style="fill:#010002;" d="M20.21,35.795c0.68,0.679,1.581,1.052,2.539,1.052c0.958,0,1.86-0.373,2.54-1.052l8.345-8.341 c1.062-1.062,0.929-1.927,0.755-2.347c-0.175-0.421-0.689-1.129-2.195-1.129h-4.555V8.794c0-2.713-2.207-4.92-4.92-4.92 s-4.92,2.207-4.92,4.92v15.185h-4.492c-1.502,0-2.019,0.707-2.193,1.128c-0.175,0.421-0.309,1.285,0.753,2.347L20.21,35.795z M13.305,25.852h6.364V8.794c0.001-1.679,1.369-3.047,3.049-3.047c1.681,0,3.048,1.367,3.048,3.047v17.058h6.428 c0.14,0,0.25,0.011,0.336,0.024c-0.051,0.068-0.121,0.154-0.221,0.254l-8.345,8.341c-0.612,0.613-1.817,0.613-2.431,0 l-8.344-8.341c-0.099-0.1-0.17-0.184-0.22-0.254C13.054,25.864,13.164,25.852,13.305,25.852z"></path><path style="fill:#010002;" d="M44.562,31.26c-0.516,0-0.936,0.42-0.936,0.937v7.555H1.873v-8.508c0-0.516-0.42-0.935-0.937-0.935 C0.42,30.309,0,30.729,0,31.245v9.443c0,0.518,0.42,0.938,0.936,0.938h43.626c0.518,0,0.938-0.42,0.938-0.938v-8.49 C45.5,31.68,45.08,31.26,44.562,31.26z"></path></g></g></svg>